<svg width="20" height="21" viewBox="0 0 20 21" fill="none" xmlns="http://www.w3.org/2000/svg">
<path fill-rule="evenodd" clip-rule="evenodd" d="M16.707 5.70807C16.8945 5.8956 16.9998 6.14991 16.9998 6.41507C16.9998 6.68023 16.8945 6.93454 16.707 7.12207L8.70698 15.1221C8.51945 15.3095 8.26514 15.4149 7.99998 15.4149C7.73482 15.4149 7.48051 15.3095 7.29298 15.1221L3.29298 11.1221C3.11082 10.9335 3.01003 10.6809 3.01231 10.4187C3.01458 10.1565 3.11975 9.90566 3.30516 9.72025C3.49057 9.53484 3.74138 9.42967 4.00358 9.4274C4.26578 9.42512 4.51838 9.52591 4.70698 9.70807L7.99998 13.0011L15.293 5.70807C15.4805 5.5206 15.7348 5.41528 16 5.41528C16.2651 5.41528 16.5195 5.5206 16.707 5.70807Z" fill="#C27803"/>
</svg>
