<svg width="20" height="21" viewBox="0 0 20 21" fill="none" xmlns="http://www.w3.org/2000/svg">
<path d="M13.3162 19.5C12.8751 19.4999 12.4521 19.3104 12.1403 18.9732L5.487 11.7821C5.17517 11.4449 5 10.9878 5 10.511C5 10.0343 5.17517 9.57714 5.487 9.24001L12.1403 2.04884C12.2937 1.87714 12.4772 1.74018 12.6802 1.64596C12.8831 1.55174 13.1014 1.50214 13.3222 1.50007C13.5431 1.49799 13.7621 1.54348 13.9665 1.63387C14.1709 1.72427 14.3567 1.85776 14.5128 2.02656C14.669 2.19536 14.7925 2.39609 14.8761 2.61703C14.9598 2.83797 15.0019 3.0747 14.9999 3.31341C14.998 3.55212 14.9521 3.78803 14.865 4.00737C14.7778 4.2267 14.6511 4.42508 14.4922 4.59092L9.0149 10.511L14.4922 16.4312C14.7248 16.6826 14.8831 17.0029 14.9473 17.3516C15.0114 17.7003 14.9785 18.0617 14.8526 18.3901C14.7267 18.7186 14.5136 18.9993 14.2401 19.1969C13.9667 19.3944 13.6452 19.4999 13.3162 19.5Z" fill="#233876"/>
</svg>
