<svg width="26" height="26" viewBox="0 0 26 26" fill="none" xmlns="http://www.w3.org/2000/svg">
<path d="M17.622 10.5317C17.1191 10.5316 16.6172 10.5733 16.1213 10.6564C15.4368 13.2223 13.214 15.307 10.2575 16.1497C9.96177 20.1106 14.1352 22.4943 17.622 22.4943C18.2731 22.4943 18.9201 22.425 19.5448 22.2881C19.7137 22.2511 19.8931 22.271 20.0498 22.3442L22.8369 23.6455V20.7387C24.2283 19.6093 25 18.094 25 16.513C25 13.2149 21.6902 10.5317 17.622 10.5317ZM19.3324 19.8447L18.6155 17.7297H16.6617L15.9647 19.8447H14.4416L14.4662 19.7722L16.9227 12.5276H18.3921L18.4047 12.5648L20.884 19.8447H19.3324Z" fill="#B1B1B1"/>
<path d="M17.0396 16.4581H18.235C18.235 16.4581 17.6591 14.759 17.6341 14.6791C17.6119 14.7527 17.0396 16.4581 17.0396 16.4581ZM7.37805 3C3.30978 3 0 5.68317 0 8.98131C0 10.5623 0.771688 12.0776 2.16314 13.207V16.1138L4.95021 14.8125C5.10782 14.7389 5.28526 14.7192 5.45518 14.7564C6.08002 14.8933 6.72692 14.9627 7.37805 14.9627C11.4463 14.9627 14.7561 12.2795 14.7561 8.98136C14.7561 5.68323 11.4463 3 7.37805 3ZM7.10684 13.2433C6.58248 13.2433 6.18707 12.8333 6.18707 12.2895C6.18707 11.7307 6.57842 11.325 7.11752 11.325C7.65048 11.325 8.03729 11.7307 8.03729 12.2895C8.03734 12.8422 7.64599 13.2433 7.10684 13.2433ZM8.36758 8.79952C7.95139 9.29242 7.79332 9.69242 7.82196 10.1805L7.84445 10.7636H6.44471L6.40315 10.223C6.32794 9.5343 6.58072 8.81742 7.13435 8.15182C7.5688 7.63916 7.82009 7.26373 7.82009 6.86058C7.82009 6.44418 7.57137 6.22911 7.08082 6.22126C6.62735 6.22137 6.20043 6.42682 5.86923 6.72821L5.39749 5.48761C5.91907 5.06608 6.6156 4.8734 7.27874 4.8734C8.71555 4.8734 9.35871 5.81197 9.35871 6.7421C9.35866 7.55561 8.92917 8.13136 8.36758 8.79952Z" fill="#B1B1B1"/>
</svg>
