<svg width="25" height="25" viewBox="0 0 25 25" fill="none" xmlns="http://www.w3.org/2000/svg">
<path d="M24.9807 10.5438C25.1056 9.91931 24.606 9.16989 23.9815 9.16989L16.862 8.17066L13.6145 1.67567C13.4896 1.42586 13.3647 1.30096 13.1149 1.17606C12.4904 0.801346 11.7409 1.05115 11.3662 1.67567L8.24364 8.17066L1.12413 9.16989C0.749422 9.16989 0.499615 9.2948 0.374711 9.5446C-0.124904 10.0442 -0.124904 10.7936 0.374711 11.2933L5.49576 16.2894L4.24672 23.4089C4.24672 23.6587 4.24672 23.9085 4.37163 24.1583C4.74634 24.7829 5.49576 25.0327 6.12028 24.6579L12.4904 21.2855L18.8605 24.6579C18.9854 24.7829 19.2352 24.7829 19.485 24.7829C19.6099 24.7829 19.6099 24.7829 19.7348 24.7829C20.3593 24.6579 20.8589 24.0334 20.734 23.284L19.485 16.1645L24.606 11.1684C24.8558 11.0434 24.9807 10.7936 24.9807 10.5438Z" fill="#B1B1B1"/>
</svg>
