<svg width="20" height="21" viewBox="0 0 20 21" fill="none" xmlns="http://www.w3.org/2000/svg">
<g clip-path="url(#clip0_85_1027)">
<path d="M19.1668 10.9001C19.1668 10.2644 19.1153 9.62533 19.0053 8.99996H10.1848V12.601H15.2359C15.0263 13.7624 14.3528 14.7898 13.3667 15.4426V17.7792H16.3801C18.1497 16.1505 19.1668 13.7452 19.1668 10.9001Z" fill="#4285F4"/>
<path d="M10.1848 20.0367C12.7069 20.0367 14.8339 19.2086 16.3836 17.7792L13.3701 15.4426C12.5317 16.013 11.4493 16.336 10.1883 16.336C7.74864 16.336 5.68011 14.6901 4.93791 12.4773H1.82824V14.886C3.41572 18.0438 6.64909 20.0367 10.1848 20.0367Z" fill="#34A853"/>
<path d="M4.93449 12.4773C4.54277 11.3159 4.54277 10.0583 4.93449 8.89687V6.48816H1.82825C0.501917 9.13052 0.501908 12.2436 1.82824 14.886L4.93449 12.4773Z" fill="#FBBC04"/>
<path d="M10.1848 5.03468C11.518 5.01407 12.8066 5.51574 13.7721 6.43661L16.442 3.76676C14.7514 2.17928 12.5076 1.30652 10.1848 1.334C6.64909 1.334 3.41573 3.32695 1.82825 6.48816L4.93449 8.89687C5.67325 6.68059 7.74521 5.03468 10.1848 5.03468Z" fill="#EA4335"/>
</g>
<defs>
<clipPath id="clip0_85_1027">
<rect width="20" height="20" fill="white" transform="translate(0 0.5)"/>
</clipPath>
</defs>
</svg>
