<svg width="96" height="96" viewBox="0 0 96 96" fill="none" xmlns="http://www.w3.org/2000/svg">
<path d="M0 8C0 3.58172 3.58172 0 8 0H88C92.4183 0 96 3.58172 96 8V88C96 92.4183 92.4183 96 88 96H8C3.58172 96 0 92.4183 0 88V8Z" fill="#E1EFFE"/>
<path d="M30 20C28.0222 20 26.0888 20.5865 24.4443 21.6853C22.7998 22.7841 21.5181 24.3459 20.7612 26.1732C20.0043 28.0004 19.8063 30.0111 20.1922 31.9509C20.578 33.8907 21.5304 35.6725 22.9289 37.0711C24.3275 38.4696 26.1093 39.422 28.0491 39.8078C29.9889 40.1937 31.9996 39.9957 33.8268 39.2388C35.6541 38.4819 37.2159 37.2002 38.3147 35.5557C39.4135 33.9112 40 31.9778 40 30C39.9971 27.3487 38.9426 24.8069 37.0679 22.9321C35.1931 21.0574 32.6513 20.0029 30 20V20ZM30 35C29.8022 35 29.6089 34.9413 29.4444 34.8315C29.28 34.7216 29.1518 34.5654 29.0761 34.3827C29.0004 34.2 28.9806 33.9989 29.0192 33.8049C29.0578 33.6109 29.153 33.4327 29.2929 33.2929C29.4327 33.153 29.6109 33.0578 29.8049 33.0192C29.9989 32.9806 30.2 33.0004 30.3827 33.0761C30.5654 33.1518 30.7216 33.28 30.8315 33.4444C30.9414 33.6089 31 33.8022 31 34C31 34.2652 30.8946 34.5196 30.7071 34.7071C30.5196 34.8946 30.2652 35 30 35ZM31 31C31 31.2652 30.8946 31.5196 30.7071 31.7071C30.5196 31.8946 30.2652 32 30 32C29.7348 32 29.4804 31.8946 29.2929 31.7071C29.1054 31.5196 29 31.2652 29 31V26C29 25.7348 29.1054 25.4804 29.2929 25.2929C29.4804 25.1054 29.7348 25 30 25C30.2652 25 30.5196 25.1054 30.7071 25.2929C30.8946 25.4804 31 25.7348 31 26V31Z" fill="#233876"/>
</svg>
