<svg width="96" height="96" viewBox="0 0 96 96" fill="none" xmlns="http://www.w3.org/2000/svg">
<path d="M0 8C0 3.58172 3.58172 0 8 0H88C92.4183 0 96 3.58172 96 8V88C96 92.4183 92.4183 96 88 96H8C3.58172 96 0 92.4183 0 88V8Z" fill="#233876"/>
<path d="M39.9232 27.5224C39.8359 27.2378 39.6734 26.9846 39.4544 26.792C39.2355 26.5993 38.9688 26.475 38.6852 26.4333L33.6342 25.6676L31.3753 20.8929C31.2487 20.6249 31.0527 20.3992 30.8095 20.2414C30.5663 20.0836 30.2857 20 29.9993 20C29.7129 20 29.4322 20.0836 29.1891 20.2414C28.9459 20.3992 28.7499 20.6249 28.6233 20.8929L26.3643 25.6676L21.3134 26.4333C21.0302 26.4764 20.7642 26.6012 20.5454 26.7937C20.3266 26.9862 20.1637 27.2387 20.0752 27.5226C19.9867 27.8066 19.9761 28.1107 20.0445 28.4006C20.1129 28.6905 20.2577 28.9547 20.4624 29.1633L24.1184 32.8802L23.2554 38.1275C23.2062 38.422 23.2371 38.725 23.3448 39.0021C23.4524 39.2791 23.6324 39.5192 23.8642 39.6949C24.0961 39.8706 24.3705 39.9749 24.6564 39.996C24.9423 40.0171 25.2281 39.9542 25.4813 39.8143L29.9993 37.3367L34.5172 39.8143C34.7706 39.9529 35.0561 40.0148 35.3414 39.9932C35.6268 39.9715 35.9006 39.8671 36.1321 39.6917C36.3636 39.5162 36.5435 39.2768 36.6514 39.0005C36.7594 38.7241 36.7912 38.4217 36.7432 38.1275L35.8802 32.8802L39.5362 29.1623C39.7419 28.9545 39.8874 28.6905 39.9558 28.4004C40.0243 28.1104 40.013 27.806 39.9232 27.5224V27.5224Z" fill="#E1EFFE"/>
</svg>
