<svg width="96" height="96" viewBox="0 0 96 96" fill="none" xmlns="http://www.w3.org/2000/svg">
<path d="M0 8C0 3.58172 3.58172 0 8 0H88C92.4183 0 96 3.58172 96 8V88C96 92.4183 92.4183 96 88 96H8C3.58172 96 0 92.4183 0 88V8Z" fill="#E1EFFE"/>
<g clip-path="url(#clip0_83_493)">
<path d="M48 20C42.4621 20 37.0486 21.6422 32.444 24.7188C27.8395 27.7955 24.2506 32.1685 22.1314 37.2849C20.0121 42.4012 19.4576 48.0311 20.538 53.4625C21.6184 58.894 24.2852 63.8831 28.201 67.799C32.1169 71.7148 37.106 74.3816 42.5375 75.462C47.9689 76.5424 53.5988 75.9879 58.7151 73.8686C63.8315 71.7494 68.2045 68.1605 71.2811 63.556C74.3578 58.9514 76 53.5379 76 48C75.9918 40.5764 73.0392 33.4593 67.79 28.21C62.5407 22.9608 55.4236 20.0082 48 20ZM48 62C47.4462 62 46.9049 61.8358 46.4444 61.5281C45.984 61.2204 45.6251 60.7831 45.4131 60.2715C45.2012 59.7599 45.1458 59.1969 45.2538 58.6537C45.3618 58.1106 45.6285 57.6117 46.0201 57.2201C46.4117 56.8285 46.9106 56.5618 47.4538 56.4538C47.9969 56.3458 48.5599 56.4012 49.0715 56.6131C49.5832 56.8251 50.0205 57.1839 50.3281 57.6444C50.6358 58.1049 50.8 58.6462 50.8 59.2C50.8 59.9426 50.505 60.6548 49.9799 61.1799C49.4548 61.705 48.7426 62 48 62ZM50.8 50.8C50.8 51.5426 50.505 52.2548 49.9799 52.7799C49.4548 53.305 48.7426 53.6 48 53.6C47.2574 53.6 46.5452 53.305 46.0201 52.7799C45.495 52.2548 45.2 51.5426 45.2 50.8V36.8C45.2 36.0574 45.495 35.3452 46.0201 34.8201C46.5452 34.295 47.2574 34 48 34C48.7426 34 49.4548 34.295 49.9799 34.8201C50.505 35.3452 50.8 36.0574 50.8 36.8V50.8Z" fill="#233876"/>
</g>
<defs>
<clipPath id="clip0_83_493">
<rect width="56" height="56" fill="white" transform="translate(20 20)"/>
</clipPath>
</defs>
</svg>
