<svg width="96" height="96" viewBox="0 0 96 96" fill="none" xmlns="http://www.w3.org/2000/svg">
<path d="M0 8C0 3.58172 3.58172 0 8 0H88C92.4183 0 96 3.58172 96 8V88C96 92.4183 92.4183 96 88 96H8C3.58172 96 0 92.4183 0 88V8Z" fill="#233876"/>
<g clip-path="url(#clip0_84_501)">
<path d="M75.7849 41.0627C75.5405 40.2657 75.0856 39.5569 74.4724 39.0175C73.8593 38.4781 73.1127 38.13 72.3185 38.0132L58.1759 35.8692L51.8508 22.5001C51.4963 21.7497 50.9476 21.1179 50.2667 20.676C49.5858 20.2342 48.7999 20 47.998 20C47.1961 20 46.4103 20.2342 45.7294 20.676C45.0485 21.1179 44.4997 21.7497 44.1453 22.5001L37.8201 35.8692L23.6775 38.0132C22.8845 38.1339 22.1397 38.4835 21.5271 39.0224C20.9145 39.5614 20.4585 40.2683 20.2107 41.0633C19.9628 41.8584 19.933 42.7099 20.1246 43.5216C20.3162 44.3334 20.7215 45.0731 21.2947 45.6573L31.5314 56.0646L29.115 70.7569C28.9773 71.5816 29.064 72.43 29.3654 73.2058C29.6667 73.9816 30.1707 74.6536 30.8199 75.1456C31.4691 75.6376 32.2375 75.9297 33.0379 75.9888C33.8383 76.0479 34.6386 75.8717 35.3478 75.4801L47.998 68.5428L60.6483 75.4801C61.3577 75.8681 62.1571 76.0416 62.956 75.9809C63.755 75.9202 64.5218 75.6278 65.1699 75.1366C65.8181 74.6455 66.3217 73.9752 66.624 73.2013C66.9264 72.4274 67.0154 71.5807 66.881 70.7569L64.4646 56.0646L74.7013 45.6544C75.2774 45.0727 75.6847 44.3333 75.8764 43.5212C76.068 42.709 76.0363 41.8569 75.7849 41.0627Z" fill="#E1EFFE"/>
</g>
<defs>
<clipPath id="clip0_84_501">
<rect width="56" height="56" fill="white" transform="translate(20 20)"/>
</clipPath>
</defs>
</svg>
