<svg width="64" height="64" viewBox="0 0 64 64" fill="none" xmlns="http://www.w3.org/2000/svg">
<path d="M0 8C0 3.58172 3.58172 0 8 0H56C60.4183 0 64 3.58172 64 8V56C64 60.4183 60.4183 64 56 64H8C3.58172 64 0 60.4183 0 56V8Z" fill="#E1EFFE"/>
<path d="M32.972 14.863C32.9664 14.7926 32.9526 14.7232 32.931 14.656C32.9027 14.5888 32.8668 14.525 32.824 14.466C32.8049 14.426 32.7832 14.3872 32.759 14.35C32.751 14.34 32.739 14.337 32.731 14.328C32.6782 14.2761 32.6199 14.2302 32.557 14.191C32.5126 14.1557 32.4654 14.1239 32.416 14.096C32.3605 14.0755 32.3033 14.0598 32.2451 14.049C32.1777 14.028 32.1083 14.0142 32.0381 14.008C32.0251 14.007 32.0141 14 32.0001 14H28.7933C28.5281 14 28.2738 14.1054 28.0862 14.2929C27.8987 14.4804 27.7934 14.7348 27.7934 15C27.7934 15.2652 27.8987 15.5196 28.0862 15.7071C28.2738 15.8946 28.5281 16 28.7933 16H29.2933L24.7416 19.9L21.2418 19.026C21.0925 18.9887 20.9366 18.9863 20.7863 19.0191C20.6359 19.0518 20.4951 19.1189 20.3749 19.215L15.3753 23.215C15.1682 23.3808 15.0354 23.622 15.0061 23.8857C14.9769 24.1494 15.0535 24.4139 15.2193 24.621C15.385 24.8281 15.6263 24.9609 15.8899 24.9902C16.1536 25.0194 16.4181 24.9428 16.6252 24.777L21.2388 21.09L24.7586 21.97C24.9133 22.0085 25.075 22.0094 25.2302 21.9727C25.3853 21.936 25.5294 21.8627 25.6505 21.759L31.0001 17.173V18.207C31.0001 18.4722 31.1055 18.7266 31.293 18.9141C31.4805 19.1016 31.7349 19.207 32.0001 19.207C32.2653 19.207 32.5196 19.1016 32.7071 18.9141C32.8947 18.7266 33 18.4722 33 18.207V15C32.9942 14.9537 32.9849 14.9079 32.972 14.863Z" fill="#233876"/>
<path d="M27.5004 23C26.4127 23 25.3494 23.3226 24.445 23.9269C23.5406 24.5313 22.8357 25.3902 22.4194 26.3952C22.0032 27.4002 21.8943 28.5061 22.1065 29.573C22.3187 30.6399 22.8425 31.6199 23.6116 32.3891C24.3807 33.1583 25.3607 33.6821 26.4275 33.8943C27.4943 34.1065 28.6001 33.9976 29.605 33.5813C30.6099 33.1651 31.4688 32.4601 32.0731 31.5556C32.6775 30.6512 33 29.5878 33 28.5C33 27.0413 32.4206 25.6424 31.3892 24.6109C30.3578 23.5795 28.959 23 27.5004 23ZM27.7404 27.591C28.5415 27.7754 29.2371 28.2694 29.6752 28.965C29.8192 29.1995 29.9142 29.4608 29.9544 29.733C29.9946 30.0053 29.9792 30.2829 29.9092 30.549C29.8095 30.8835 29.6335 31.1903 29.3951 31.4452C29.1567 31.7001 28.8624 31.8962 28.5353 32.018C28.5233 32.262 28.4208 32.4927 28.2478 32.6651C28.0748 32.8375 27.8438 32.9393 27.5998 32.9505C27.3558 32.9618 27.1164 32.8817 26.9283 32.7259C26.7402 32.5701 26.6169 32.3498 26.5825 32.108C26.0094 31.9569 25.4954 31.6362 25.1076 31.188C24.9374 30.9843 24.8552 30.7214 24.8789 30.457C24.9026 30.1927 25.0304 29.9486 25.2341 29.7785C25.4377 29.6084 25.7006 29.5261 25.965 29.5498C26.2293 29.5736 26.4733 29.7013 26.6435 29.905C26.7779 30.0523 26.9552 30.1538 27.1504 30.195C27.2915 30.2489 27.4451 30.2605 27.5927 30.2286C27.7402 30.1966 27.8753 30.1224 27.9814 30.015C27.9005 29.8912 27.7957 29.7849 27.6731 29.7022C27.5504 29.6196 27.4125 29.5624 27.2674 29.534C26.4663 29.35 25.7709 28.8559 25.3336 28.16C25.19 27.9253 25.0953 27.664 25.0553 27.3918C25.0152 27.1196 25.0306 26.8421 25.1006 26.576C25.2052 26.2293 25.3914 25.9127 25.6437 25.6529C25.896 25.3931 26.207 25.1977 26.5505 25.083V25.053C26.5505 24.7878 26.6558 24.5334 26.8433 24.3459C27.0309 24.1584 27.2852 24.053 27.5504 24.053C27.8156 24.053 28.0699 24.1584 28.2574 24.3459C28.445 24.5334 28.5503 24.7878 28.5503 25.053C29.0669 25.2116 29.5295 25.5099 29.8872 25.915C29.9726 26.0151 30.0374 26.131 30.0779 26.2561C30.1185 26.3812 30.134 26.5131 30.1236 26.6442C30.1132 26.7753 30.0771 26.9031 30.0173 27.0203C29.9576 27.1374 29.8753 27.2416 29.7752 27.327C29.6752 27.4124 29.5593 27.4772 29.4342 27.5177C29.3091 27.5583 29.1772 27.5738 29.0461 27.5634C28.915 27.553 28.7872 27.5169 28.6701 27.4571C28.5529 27.3973 28.4487 27.3151 28.3633 27.215C28.2279 27.0696 28.0508 26.9697 27.8564 26.929C27.7157 26.8752 27.5623 26.8635 27.4151 26.8955C27.2679 26.9275 27.1332 27.0017 27.0274 27.109C27.1083 27.2326 27.213 27.3389 27.3354 27.4217C27.4578 27.5045 27.5955 27.562 27.7404 27.591Z" fill="#233876"/>
<path d="M20.0009 34C19.7357 34 19.4814 33.8946 19.2939 33.7071C19.1064 33.5196 19.001 33.2652 19.001 33V27C19.001 26.7348 19.1064 26.4804 19.2939 26.2929C19.4814 26.1054 19.7357 26 20.0009 26C20.2661 26 20.5205 26.1054 20.708 26.2929C20.8955 26.4804 21.0009 26.7348 21.0009 27V33C21.0009 33.2652 20.8955 33.5196 20.708 33.7071C20.5205 33.8946 20.2661 34 20.0009 34Z" fill="#233876"/>
<path d="M16.0012 34C15.736 34 15.4817 33.8946 15.2942 33.7071C15.1066 33.5196 15.0013 33.2652 15.0013 33V29C15.0013 28.7348 15.1066 28.4804 15.2942 28.2929C15.4817 28.1054 15.736 28 16.0012 28C16.2664 28 16.5208 28.1054 16.7083 28.2929C16.8958 28.4804 17.0012 28.7348 17.0012 29V33C17.0012 33.2652 16.8958 33.5196 16.7083 33.7071C16.5208 33.8946 16.2664 34 16.0012 34Z" fill="#233876"/>
</svg>
