<svg width="64" height="64" viewBox="0 0 64 64" fill="none" xmlns="http://www.w3.org/2000/svg">
<path d="M0 8C0 3.58172 3.58172 0 8 0H56C60.4183 0 64 3.58172 64 8V56C64 60.4183 60.4183 64 56 64H8C3.58172 64 0 60.4183 0 56V8Z" fill="#E1EFFE"/>
<path d="M21.5972 27.0912H15.8993C15.3956 27.0912 14.9125 27.2791 14.5563 27.6137C14.2001 27.9483 14 28.4021 14 28.8752V44.9319C14 45.8782 14.4002 46.7858 15.1126 47.4549C15.825 48.1241 16.7912 48.5 17.7986 48.5H19.6979C20.7054 48.5 21.6716 48.1241 22.384 47.4549C23.0963 46.7858 23.4966 45.8782 23.4966 44.9319V28.8752C23.4966 28.4021 23.2965 27.9483 22.9403 27.6137C22.5841 27.2791 22.101 27.0912 21.5972 27.0912Z" fill="#233876"/>
<path d="M46.2009 27.0912H38.691L41.6502 19.0628C41.7473 18.3282 41.5677 17.5848 41.1427 16.9614C40.7177 16.338 40.0739 15.8738 39.323 15.6494C38.572 15.4249 37.761 15.4542 37.0306 15.7322C36.3002 16.0103 35.6963 16.5195 35.3236 17.1717C33.1283 20.6909 30.4267 23.9088 27.2952 26.7343V43.8364H27.5117C31.5174 44.8766 36.8202 46.7159 41.7299 46.7159C44.389 46.7159 44.7537 45.7775 45.3007 44.3663L49.7716 31.8778C49.9801 31.3388 50.0472 30.7605 49.9673 30.192C49.8873 29.6234 49.6626 29.0814 49.3123 28.6117C48.9619 28.1421 48.4962 27.7586 47.9546 27.4939C47.413 27.2293 46.8115 27.0911 46.2009 27.0912Z" fill="#233876"/>
</svg>
