<svg width="64" height="64" viewBox="0 0 64 64" fill="none" xmlns="http://www.w3.org/2000/svg">
<path d="M0 8C0 3.58172 3.58172 0 8 0H56C60.4183 0 64 3.58172 64 8V56C64 60.4183 60.4183 64 56 64H8C3.58172 64 0 60.4183 0 56V8Z" fill="#E1EFFE"/>
<path d="M30.6669 15.1077V28.5251C30.6669 28.7286 30.6107 28.9282 30.5044 29.1019C30.3981 29.2757 30.2459 29.4168 30.0644 29.51C29.8829 29.6031 29.6792 29.6446 29.4756 29.63C29.272 29.6153 29.0764 29.545 28.9102 29.4267L22.889 25.1392V18.4936L28.9102 14.2061C29.0764 14.0879 29.272 14.0176 29.4756 14.0029C29.6792 13.9882 29.8829 14.0297 30.0644 14.1229C30.2459 14.216 30.3981 14.3572 30.5044 14.5309C30.6107 14.7047 30.6669 14.9042 30.6669 15.1077Z" fill="#233876"/>
<path d="M21.7779 17.386H16.2223C15.6329 17.386 15.0676 17.6194 14.6509 18.0348C14.2341 18.4503 14 19.0137 14 19.6012V24.0316C14 24.6191 14.2341 25.1826 14.6509 25.598C15.0676 26.0134 15.6329 26.2468 16.2223 26.2468V31.7848C16.2223 32.3723 16.4564 32.9358 16.8731 33.3512C17.2899 33.7666 17.8551 34 18.4445 34H19.5556C20.145 34 20.7103 33.7666 21.127 33.3512C21.5438 32.9358 21.7779 32.3723 21.7779 31.7848V17.386ZM18.4445 31.7848V26.2468H19.5556V31.7848H18.4445Z" fill="#233876"/>
<path d="M31.778 18.6963V24.9365C32.4273 24.7104 32.9899 24.2886 33.388 23.7296C33.7861 23.1706 34 22.502 34 21.8164C34 21.1309 33.7861 20.4623 33.388 19.9033C32.9899 19.3442 32.4273 18.9225 31.778 18.6963Z" fill="#233876"/>
</svg>
