<svg width="14" height="14" viewBox="0 0 14 14" fill="none" xmlns="http://www.w3.org/2000/svg">
<g clip-path="url(#clip0_388_36)">
<path d="M12.8459 2.14389L7.2459 0.0438548C7.0878 -0.0146183 6.914 -0.0146183 6.7559 0.0438548L1.1559 2.14389C1.02212 2.19371 0.906774 2.28324 0.825324 2.40048C0.743874 2.51771 0.700213 2.65705 0.700195 2.7998C0.720223 4.9901 1.26991 7.14303 2.30235 9.07482C3.33478 11.0066 4.8193 12.6599 6.6292 13.8936C6.74045 13.9631 6.869 14 7.0002 14C7.13139 14 7.25994 13.9631 7.3712 13.8936C9.18109 12.6599 10.6656 11.0066 11.698 9.07482C12.7305 7.14303 13.2802 4.9901 13.3002 2.7998C13.3003 2.65722 13.2568 2.518 13.1756 2.40078C13.0945 2.28357 12.9794 2.19394 12.8459 2.14389ZM10.2951 5.39475L6.7951 8.89481C6.66385 9.0261 6.48583 9.09987 6.3002 9.09991C6.2771 9.09991 6.2547 9.09991 6.2302 9.09641C6.12722 9.08619 6.0278 9.05327 5.93907 9.00001C5.85035 8.94675 5.77454 8.87448 5.7171 8.78841L4.3171 6.68837C4.26608 6.61189 4.23062 6.5261 4.21276 6.43592C4.19489 6.34573 4.19496 6.25291 4.21297 6.16275C4.23097 6.0726 4.26656 5.98687 4.31769 5.91046C4.36883 5.83406 4.43451 5.76847 4.511 5.71745C4.58748 5.66643 4.67326 5.63098 4.76344 5.61311C4.85363 5.59525 4.94645 5.59532 5.0366 5.61332C5.12676 5.63133 5.21249 5.66691 5.28889 5.71805C5.36529 5.76919 5.43088 5.83487 5.4819 5.91136L6.408 7.30158L9.3046 4.40493C9.43662 4.27742 9.61344 4.20686 9.79698 4.20846C9.98051 4.21005 10.1561 4.28367 10.2859 4.41346C10.4157 4.54325 10.4893 4.71882 10.4909 4.90236C10.4925 5.0859 10.4219 5.26272 10.2944 5.39475H10.2951Z" fill="white"/>
</g>
<defs>
<clipPath id="clip0_388_36">
<rect width="14" height="14" fill="white"/>
</clipPath>
</defs>
</svg>
