<svg width="24" height="24" viewBox="0 0 24 24" fill="none" xmlns="http://www.w3.org/2000/svg">
<path d="M9.00002 0C8.84445 0.137396 8.71657 0.306854 8.62407 0.498193L6.36536 5.37261L1.31502 6.15396C1.03144 6.19764 0.764999 6.32497 0.54587 6.52154C0.326742 6.71811 0.163673 6.97605 0.0751242 7.26619C-0.0134248 7.55632 -0.0239179 7.86705 0.0448323 8.16321C0.113583 8.45936 0.258831 8.72911 0.464135 8.94192L4.11966 12.7348L3.25677 18.0904C3.2078 18.3908 3.23894 18.6999 3.34665 18.9824C3.45436 19.265 3.63433 19.5097 3.86612 19.6889C4.09791 19.868 4.37223 19.9744 4.65794 19.9959C4.94366 20.0175 5.22931 19.9532 5.48248 19.8106L9.00002 17.8391V0Z" fill="#233876"/>
<path d="M19.9236 7.26531C19.836 6.97486 19.6734 6.71655 19.4543 6.51999C19.2352 6.32343 18.9685 6.19657 18.6848 6.15396L13.6344 5.37261L11.3757 0.500322C11.2832 0.308393 11.1553 0.138244 10.9998 0V17.8391L14.5173 19.8085C14.7706 19.9505 15.0561 20.0141 15.3416 19.9923C15.6271 19.9704 15.9011 19.8638 16.1326 19.6847C16.3642 19.5055 16.544 19.2609 16.6517 18.9786C16.7594 18.6963 16.7907 18.3875 16.742 18.0872L15.8801 12.7327L19.5336 8.94192C19.7402 8.72978 19.8863 8.45994 19.9553 8.16337C20.0242 7.8668 20.0133 7.55554 19.9236 7.26531Z" fill="#233876"/>
</svg>
