<svg width="16" height="17" viewBox="0 0 16 17" fill="none" xmlns="http://www.w3.org/2000/svg">
<g clip-path="url(#clip0_1_29364)">
<path d="M8 8.07895C10.2941 8.07895 12.1538 6.38234 12.1538 4.28947C12.1538 2.19661 10.2941 0.5 8 0.5C5.70589 0.5 3.84615 2.19661 3.84615 4.28947C3.84615 6.38234 5.70589 8.07895 8 8.07895Z" fill="#6B7280"/>
<path d="M9.38462 8.92105H6.61538C5.39176 8.92239 4.21867 9.36643 3.35343 10.1558C2.4882 10.9451 2.00147 12.0153 2 13.1316V15.6579C2 15.8812 2.09725 16.0954 2.27036 16.2534C2.44347 16.4113 2.67826 16.5 2.92308 16.5H13.0769C13.3217 16.5 13.5565 16.4113 13.7296 16.2534C13.9027 16.0954 14 15.8812 14 15.6579V13.1316C13.9985 12.0153 13.5118 10.9451 12.6466 10.1558C11.7813 9.36643 10.6082 8.92239 9.38462 8.92105Z" fill="#6B7280"/>
</g>
<defs>
<clipPath id="clip0_1_29364">
<rect width="16" height="16" fill="white" transform="translate(0 0.5)"/>
</clipPath>
</defs>
</svg>
