<svg width="16" height="17" viewBox="0 0 16 17" fill="none" xmlns="http://www.w3.org/2000/svg">
<g clip-path="url(#clip0_1_29369)">
<path d="M5.2 8.07895C7.18823 8.07895 8.8 6.38234 8.8 4.28947C8.8 2.19661 7.18823 0.5 5.2 0.5C3.21177 0.5 1.6 2.19661 1.6 4.28947C1.6 6.38234 3.21177 8.07895 5.2 8.07895Z" fill="#6B7280"/>
<path d="M6.4 8.92105H4C2.93952 8.92239 1.92285 9.36643 1.17298 10.1558C0.423106 10.9451 0.00127029 12.0153 0 13.1316V15.6579C0 15.8812 0.0842854 16.0954 0.234315 16.2534C0.384344 16.4113 0.587827 16.5 0.8 16.5H9.6C9.81217 16.5 10.0157 16.4113 10.1657 16.2534C10.3157 16.0954 10.4 15.8812 10.4 15.6579V13.1316C10.3987 12.0153 9.97689 10.9451 9.22702 10.1558C8.47715 9.36643 7.46048 8.92239 6.4 8.92105Z" fill="#6B7280"/>
<path d="M8.1352 6.46884C8.56668 5.83281 8.79906 5.07102 8.8 4.28947C8.79828 4.01199 8.7677 3.73553 8.7088 3.46505C8.38299 3.87578 8.15987 4.3657 8.05969 4.89028C7.95952 5.41487 7.98547 5.9575 8.1352 6.46884Z" fill="#6B7280"/>
<path d="M11.2 2.18421C10.8168 2.1873 10.4374 2.26348 10.08 2.40905C10.4091 3.34136 10.4881 4.35099 10.3085 5.32742C10.1289 6.30385 9.69749 7.20944 9.0616 7.94505C9.42044 8.15444 9.75655 8.40433 10.064 8.69032C10.426 8.84 10.8111 8.91821 11.2 8.92105C12.0487 8.92105 12.8626 8.56617 13.4627 7.93446C14.0629 7.30276 14.4 6.44599 14.4 5.55263C14.4 4.65927 14.0629 3.8025 13.4627 3.1708C12.8626 2.5391 12.0487 2.18421 11.2 2.18421Z" fill="#6B7280"/>
<path d="M12 9.76316H10.9784C11.6412 10.748 11.9981 11.9247 12 13.1316V15.6579C11.9974 15.9454 11.9476 16.2303 11.8528 16.5H15.2C15.4122 16.5 15.6157 16.4113 15.7657 16.2534C15.9157 16.0954 16 15.8812 16 15.6579V13.9737C15.9987 12.8574 15.5769 11.7872 14.827 10.9979C14.0772 10.2085 13.0605 9.76449 12 9.76316Z" fill="#6B7280"/>
</g>
<defs>
<clipPath id="clip0_1_29369">
<rect width="16" height="16" fill="white" transform="translate(0 0.5)"/>
</clipPath>
</defs>
</svg>
