<svg width="24" height="24" viewBox="0 0 24 24" fill="none" xmlns="http://www.w3.org/2000/svg">
<path d="M11.4667 3.94487L8.54223 0.404176C8.44886 0.292004 8.33311 0.198982 8.20182 0.130597C8.07053 0.0622123 7.92635 0.0198496 7.77778 0.00600829C7.47949 -0.0198924 7.18269 0.0689991 6.95223 0.253258L2.41223 3.94487H11.4667Z" fill="#233876"/>
<path d="M8.88889 13.5779V12.5076C8.88889 11.3721 9.35714 10.2831 10.1906 9.48022C11.0241 8.67731 12.1546 8.22624 13.3333 8.22624H18.8889V7.15589C18.8889 6.87202 18.7718 6.59978 18.5635 6.39905C18.3551 6.19832 18.0725 6.08555 17.7778 6.08555H1.11111C0.816426 6.08555 0.533811 6.19832 0.325437 6.39905C0.117063 6.59978 0 6.87202 0 7.15589V18.9297C0 19.2135 0.117063 19.4858 0.325437 19.6865C0.533811 19.8872 0.816426 20 1.11111 20H17.7778C18.0725 20 18.3551 19.8872 18.5635 19.6865C18.7718 19.4858 18.8889 19.2135 18.8889 18.9297V17.8593H13.3333C12.1546 17.8593 11.0241 17.4082 10.1906 16.6053C9.35714 15.8024 8.88889 14.7134 8.88889 13.5779Z" fill="#233876"/>
<path d="M18.8889 10.3669H13.3333C12.744 10.3669 12.1787 10.5925 11.762 10.9939C11.3452 11.3954 11.1111 11.9399 11.1111 12.5076V13.5779C11.1111 14.1457 11.3452 14.6902 11.762 15.0916C12.1787 15.4931 12.744 15.7186 13.3333 15.7186H18.8889C19.1836 15.7186 19.4662 15.6059 19.6746 15.4051C19.8829 15.2044 20 14.9322 20 14.6483V11.4373C20 11.1534 19.8829 10.8811 19.6746 10.6804C19.4662 10.4797 19.1836 10.3669 18.8889 10.3669ZM15 14.1131C14.7802 14.1131 14.5654 14.0503 14.3827 13.9327C14.2 13.8151 14.0576 13.648 13.9735 13.4524C13.8894 13.2568 13.8674 13.0416 13.9102 12.834C13.9531 12.6263 14.0589 12.4356 14.2143 12.2859C14.3697 12.1362 14.5677 12.0343 14.7832 11.993C14.9988 11.9517 15.2222 11.9729 15.4252 12.0539C15.6282 12.1349 15.8018 12.2721 15.9239 12.4481C16.0459 12.6241 16.1111 12.8311 16.1111 13.0428C16.1111 13.3266 15.994 13.5989 15.7857 13.7996C15.5773 14.0004 15.2947 14.1131 15 14.1131Z" fill="#233876"/>
<path d="M13.07 3.94487H15.9111L12.9867 0.404174C12.8031 0.181902 12.5353 0.0389883 12.2424 0.00687181C11.9494 -0.0252447 11.6552 0.0560672 11.4244 0.23292C11.1937 0.409772 11.0453 0.667678 11.012 0.949902C10.9787 1.23213 11.0631 1.51555 11.2467 1.73782L13.07 3.94487Z" fill="#233876"/>
</svg>
